<?xml version="1.0" standalone="no"?>
<!DOCTYPE svg PUBLIC "-//W3C//DTD SVG 20010904//EN"
 "http://www.w3.org/TR/2001/REC-SVG-20010904/DTD/svg10.dtd">
<svg version="1.0" xmlns="http://www.w3.org/2000/svg"
 width="512.000000pt" height="512.000000pt" viewBox="0 0 512.000000 512.000000"
 preserveAspectRatio="xMidYMid meet">

<g transform="translate(0.000000,512.000000) scale(0.100000,-0.100000)"
fill="#000000" stroke="none">
<path d="M2380 4954 c-241 -27 -382 -56 -555 -111 -507 -163 -948 -491 -1244
-927 -208 -306 -337 -637 -398 -1018 -24 -157 -24 -517 1 -676 74 -472 259
-879 561 -1230 382 -445 916 -731 1515 -814 123 -17 478 -16 600 1 698 96
1291 459 1679 1026 207 303 338 637 397 1017 25 157 25 518 1 675 -82 521
-313 985 -671 1347 -369 374 -830 607 -1363 691 -93 15 -448 28 -523 19z m484
-824 c904 -181 1469 -1069 1246 -1958 -155 -615 -649 -1074 -1280 -1189 -150
-27 -422 -25 -570 6 -581 120 -1031 514 -1217 1066 -59 175 -77 295 -77 505
-1 152 3 205 22 295 101 502 405 905 858 1135 154 79 335 132 559 164 73 11
363 -4 459 -24z"/>
<path d="M2315 4024 c-112 -18 -244 -58 -352 -106 -51 -22 -93 -42 -93 -44 0
-4 128 -232 136 -243 2 -2 36 10 77 27 101 43 233 80 309 87 119 12 108 -5
108 155 l0 140 -52 -1 c-29 -1 -89 -7 -133 -15z"/>
<path d="M2620 3902 c0 -162 -11 -145 106 -157 79 -7 207 -43 307 -85 43 -18
79 -31 81 -29 7 10 136 239 136 242 0 2 -35 20 -77 40 -145 65 -324 112 -475
124 l-78 6 0 -141z"/>
<path d="M1670 3746 c-47 -35 -126 -106 -175 -157 -85 -88 -185 -216 -185
-235 1 -9 240 -148 244 -142 17 30 127 165 163 199 51 50 151 131 178 147 15
8 8 24 -52 130 -37 67 -73 122 -78 122 -6 0 -48 -29 -95 -64z"/>
<path d="M3277 3689 c-38 -67 -67 -122 -65 -123 34 -19 168 -130 209 -173 42
-45 117 -138 146 -182 4 -6 242 134 243 143 0 20 -101 148 -192 242 -88 90
-241 214 -264 214 -5 0 -40 -55 -77 -121z"/>
<path d="M2465 3639 c-523 -42 -944 -467 -984 -993 -47 -596 387 -1110 982
-1165 668 -62 1238 508 1176 1176 -55 598 -573 1031 -1174 982z m139 -191 c10
-14 16 -44 16 -84 l0 -61 73 -5 c180 -12 319 -141 347 -326 22 -142 -20 -275
-116 -367 l-52 -51 29 -19 c40 -28 97 -105 119 -162 58 -155 20 -344 -90 -447
-73 -68 -141 -98 -232 -104 l-78 -5 0 -61 c0 -74 -18 -106 -60 -106 -42 0 -60
32 -60 107 l0 63 -202 2 -202 3 -13 25 c-10 20 -12 173 -10 723 2 679 3 699
21 713 16 11 62 14 213 14 l193 0 0 63 c0 75 18 107 60 107 18 0 34 -8 44 -22z"/>
<path d="M2190 2905 l0 -286 283 3 c311 3 311 3 377 70 53 52 80 121 80 204 0
126 -46 211 -144 262 l-51 27 -272 3 -273 3 0 -286z"/>
<path d="M2190 2215 l0 -285 258 0 c290 0 319 5 391 67 61 52 84 102 89 201 3
63 0 93 -13 129 -24 62 -79 121 -140 149 -48 23 -58 24 -317 24 l-268 0 0
-285z"/>
<path d="M1202 3158 c-68 -154 -122 -375 -122 -495 l0 -43 140 0 c159 0 143
-11 155 106 7 79 43 207 85 307 18 43 31 79 29 81 -14 10 -237 136 -242 136
-2 0 -23 -42 -45 -92z"/>
<path d="M3757 3186 c-59 -34 -112 -67 -117 -72 -6 -6 2 -38 23 -89 41 -97 74
-219 82 -300 12 -116 -4 -105 155 -105 l140 0 0 43 c0 64 -26 212 -55 312 -27
93 -102 275 -114 274 -3 0 -54 -28 -114 -63z"/>
<path d="M1080 2458 c0 -65 26 -213 55 -313 26 -88 102 -275 112 -275 5 0 228
126 242 136 2 2 -11 38 -29 81 -42 100 -78 228 -85 307 -12 117 4 106 -155
106 l-140 0 0 -42z"/>
<path d="M3756 2478 c-3 -13 -7 -48 -10 -78 -8 -78 -40 -198 -80 -298 -19 -47
-33 -89 -30 -93 4 -7 230 -139 238 -139 9 0 87 191 111 275 29 100 55 248 55
313 l0 42 -140 0 c-137 0 -140 0 -144 -22z"/>
<path d="M1428 1842 c-65 -37 -118 -71 -118 -76 0 -19 100 -147 185 -235 85
-88 248 -221 270 -221 5 0 41 55 78 122 59 104 67 122 53 130 -79 44 -244 204
-308 299 -18 27 -35 48 -38 48 -3 0 -58 -30 -122 -67z"/>
<path d="M3533 1862 c-53 -78 -157 -186 -240 -248 -43 -32 -79 -59 -81 -60 -6
-4 133 -243 142 -244 23 0 176 124 264 214 91 94 192 222 192 242 -1 8 -230
144 -241 144 -2 0 -18 -22 -36 -48z"/>
<path d="M1940 1374 c-36 -64 -66 -119 -68 -124 -4 -11 170 -85 273 -115 100
-29 248 -55 313 -55 l42 0 0 140 c0 160 11 143 -108 155 -76 7 -209 45 -307
86 -38 16 -72 29 -75 29 -3 0 -34 -52 -70 -116z"/>
<path d="M3019 1455 c-85 -37 -217 -73 -299 -81 -110 -11 -100 5 -100 -154 l0
-140 43 0 c64 0 212 26 312 55 103 30 277 104 273 115 -13 36 -135 239 -143
239 -5 -1 -44 -16 -86 -34z"/>
</g>
</svg>
